<?xml version="1.0" standalone="no"?>
<!DOCTYPE svg PUBLIC "-//W3C//DTD SVG 20010904//EN"
 "http://www.w3.org/TR/2001/REC-SVG-20010904/DTD/svg10.dtd">
<svg version="1.0" xmlns="http://www.w3.org/2000/svg"
 width="512.000000pt" height="512.000000pt" viewBox="0 0 512.000000 512.000000"
 preserveAspectRatio="xMidYMid meet">

<g transform="translate(0.000000,512.000000) scale(0.100000,-0.100000)"
fill="#000000" stroke="none">
<path d="M2405 3869 c-104 -11 -249 -44 -355 -81 -82 -29 -261 -114 -304 -144
-30 -20 -46 -17 -46 9 0 37 -53 111 -105 145 -129 85 -284 57 -377 -69 -102
-139 -31 -343 143 -411 l57 -22 -70 -76 c-80 -86 -195 -242 -256 -346 l-42
-72 99 -173 c54 -96 186 -316 293 -489 107 -173 234 -382 283 -464 108 -182
161 -249 346 -440 198 -204 419 -379 480 -379 29 0 136 65 202 123 l35 30
-100 188 c-233 436 -346 606 -523 791 -236 245 -508 403 -741 428 l-69 8 75
34 c118 52 210 73 352 78 101 4 142 2 200 -12 190 -47 368 -155 515 -313 l52
-56 88 85 c105 101 184 157 307 215 248 117 483 115 749 -6 l60 -27 -64 -6
c-82 -7 -166 -35 -304 -101 -241 -116 -464 -310 -628 -550 -41 -58 -46 -70
-35 -85 7 -9 29 -36 49 -61 55 -68 187 -267 221 -334 l30 -59 75 79 c136 143
187 207 267 339 44 72 143 231 221 355 173 276 273 441 355 585 34 61 75 131
91 156 16 25 29 53 29 61 0 54 -196 333 -314 448 -25 24 -46 47 -46 50 0 3 20
11 43 17 57 16 143 93 170 153 13 30 20 67 20 110 1 107 -51 188 -157 242 -59
31 -164 31 -228 -1 -59 -28 -135 -111 -144 -156 l-6 -33 -121 62 c-67 34 -171
79 -232 99 -196 64 -458 96 -640 76z m-421 -700 c91 -79 112 -319 40 -460 -69
-138 -181 -93 -224 90 -19 80 -9 233 20 299 26 59 70 102 105 102 14 0 40 -14
59 -31z m1256 16 c19 -10 40 -37 62 -82 32 -66 33 -71 33 -198 0 -122 -2 -133
-28 -188 -46 -93 -114 -114 -172 -52 -43 45 -65 111 -72 215 -9 138 28 263 91
301 37 23 48 23 86 4z"/>
<path d="M3245 1459 c-4 -6 -5 -12 -2 -15 2 -3 7 2 10 11 7 17 1 20 -8 4z"/>
<path d="M3219 1413 c-13 -16 -12 -17 4 -4 16 13 21 21 13 21 -2 0 -10 -8 -17
-17z"/>
</g>
</svg>
